<svg width="24" height="24" viewBox="0 0 24 24" fill="none" xmlns="http://www.w3.org/2000/svg">
<g clip-path="url(#clip0)">
<path d="M22.9999 6.88C22.2363 5.60125 21.1634 4.38466 20.4389 3.74626C18.8456 2.34203 17.5132 2.37868 16.8608 2.52545C16.5984 2.58451 16.3569 2.68056 16.142 2.80717C15.0164 1.98507 13.6499 1.58228 12 1.58228C10.35 1.58228 8.98358 1.98507 7.85801 2.80717C7.643 2.68056 7.4015 2.58451 7.13914 2.52545C6.48678 2.37868 5.15435 2.34198 3.56116 3.74622C2.83657 4.38466 1.76364 5.60125 1.00009 6.88005C-0.0410031 8.62362 -0.270644 10.0381 0.317638 11.0844C1.01116 12.3177 2.08038 12.662 2.93392 12.7557C2.72983 13.5619 2.60467 14.4269 2.60467 15.4991C2.60467 16.9587 2.93917 18.2153 3.59889 19.2337C4.17888 20.1292 5.01316 20.8459 6.07868 21.364C7.74106 22.1723 9.68727 22.3748 11.2176 22.4178V17.5379C10.2699 17.091 9.34677 15.9721 9.34677 15.0805C9.34677 13.5787 11.0077 13.5787 12.0001 13.5787C12.9924 13.5787 14.6534 13.5787 14.6534 15.0805C14.6534 15.9722 13.7302 17.091 12.7825 17.5379V22.4177C14.3129 22.3748 16.2592 22.1723 17.9215 21.3639C18.987 20.8459 19.8213 20.1292 20.4013 19.2337C21.0609 18.2152 21.3955 16.9587 21.3955 15.499C21.3955 14.4268 21.2704 13.5618 21.0662 12.7556C21.9198 12.662 22.9891 12.3176 23.6825 11.0843C24.2706 10.0381 24.041 8.62362 22.9999 6.88ZM9.56586 11.3051C9.03669 11.3051 8.606 10.872 8.606 10.3377C8.606 9.80327 9.03664 9.37048 9.56586 9.37048C10.0957 9.37048 10.5263 9.80327 10.5263 10.3377C10.5263 10.872 10.0957 11.3051 9.56586 11.3051ZM14.4269 11.3124C13.8926 11.3124 13.4592 10.876 13.4592 10.3377C13.4592 9.79938 13.8926 9.36302 14.4269 9.36302C14.9606 9.36302 15.3939 9.79938 15.3939 10.3377C15.3939 10.876 14.9605 11.3124 14.4269 11.3124Z" fill="black"/>
</g>
<defs>
<clipPath id="clip0">
<rect width="24" height="24" fill="white"/>
</clipPath>
</defs>
</svg>
